<mxfile host="app.diagrams.net" modified="2024-04-22T01:47:24.249Z" agent="Mozilla/5.0 (Windows NT 10.0; Win64; x64) AppleWebKit/537.36 (KHTML, like Gecko) Chrome/124.0.0.0 Safari/537.36" etag="hEtaN4x_rjVZR2bHFKHp" version="24.2.7" type="device">
  <diagram name="Page-1" id="2YBvvXClWsGukQMizWep">
    <mxGraphModel dx="1353" dy="267" grid="1" gridSize="10" guides="1" tooltips="1" connect="1" arrows="1" fold="1" page="1" pageScale="1" pageWidth="850" pageHeight="1100" math="0" shadow="0">
      <root>
        <mxCell id="0" />
        <mxCell id="1" parent="0" />
        <mxCell id="4-TMQI-ZEwgitc-bTW-Y-1" value="Actor" style="shape=umlActor;verticalLabelPosition=bottom;verticalAlign=top;html=1;outlineConnect=0;" parent="1" vertex="1">
          <mxGeometry x="-10" y="90" width="30" height="60" as="geometry" />
        </mxCell>
        <mxCell id="aM9ryv3xv72pqoxQDRHE-1" value="LivrariaMauaController" style="shape=umlLifeline;perimeter=lifelinePerimeter;whiteSpace=wrap;html=1;container=0;dropTarget=0;collapsible=0;recursiveResize=0;outlineConnect=0;portConstraint=eastwest;newEdgeStyle={&quot;edgeStyle&quot;:&quot;elbowEdgeStyle&quot;,&quot;elbow&quot;:&quot;vertical&quot;,&quot;curved&quot;:0,&quot;rounded&quot;:0};size=40;" parent="1" vertex="1">
          <mxGeometry x="60" y="40" width="130" height="520" as="geometry" />
        </mxCell>
        <mxCell id="aM9ryv3xv72pqoxQDRHE-3" value="" style="html=1;verticalAlign=bottom;startArrow=oval;endArrow=block;startSize=8;edgeStyle=elbowEdgeStyle;elbow=vertical;curved=0;rounded=0;" parent="aM9ryv3xv72pqoxQDRHE-1" target="aM9ryv3xv72pqoxQDRHE-2" edge="1">
          <mxGeometry relative="1" as="geometry">
            <mxPoint x="-20" y="75" as="sourcePoint" />
            <Array as="points">
              <mxPoint x="30" y="75" />
            </Array>
          </mxGeometry>
        </mxCell>
        <mxCell id="aM9ryv3xv72pqoxQDRHE-5" value="LivrariaMauaService" style="shape=umlLifeline;perimeter=lifelinePerimeter;whiteSpace=wrap;html=1;container=0;dropTarget=0;collapsible=0;recursiveResize=0;outlineConnect=0;portConstraint=eastwest;newEdgeStyle={&quot;edgeStyle&quot;:&quot;elbowEdgeStyle&quot;,&quot;elbow&quot;:&quot;vertical&quot;,&quot;curved&quot;:0,&quot;rounded&quot;:0};" parent="1" vertex="1">
          <mxGeometry x="260" y="40" width="120" height="530" as="geometry" />
        </mxCell>
        <mxCell id="aM9ryv3xv72pqoxQDRHE-6" value="" style="html=1;points=[];perimeter=orthogonalPerimeter;outlineConnect=0;targetShapes=umlLifeline;portConstraint=eastwest;newEdgeStyle={&quot;edgeStyle&quot;:&quot;elbowEdgeStyle&quot;,&quot;elbow&quot;:&quot;vertical&quot;,&quot;curved&quot;:0,&quot;rounded&quot;:0};" parent="aM9ryv3xv72pqoxQDRHE-5" vertex="1">
          <mxGeometry x="55" y="80" width="10" height="200" as="geometry" />
        </mxCell>
        <mxCell id="aM9ryv3xv72pqoxQDRHE-8" value="return" style="html=1;verticalAlign=bottom;endArrow=open;dashed=1;endSize=8;edgeStyle=elbowEdgeStyle;elbow=vertical;curved=0;rounded=0;" parent="1" source="aM9ryv3xv72pqoxQDRHE-6" target="aM9ryv3xv72pqoxQDRHE-2" edge="1">
          <mxGeometry x="0.027" relative="1" as="geometry">
            <mxPoint x="195" y="205" as="targetPoint" />
            <Array as="points">
              <mxPoint x="190" y="310" />
            </Array>
            <mxPoint as="offset" />
          </mxGeometry>
        </mxCell>
        <mxCell id="4-TMQI-ZEwgitc-bTW-Y-8" value="" style="endArrow=classic;html=1;rounded=0;" parent="1" edge="1">
          <mxGeometry width="50" height="50" relative="1" as="geometry">
            <mxPoint x="130" y="144.71" as="sourcePoint" />
            <mxPoint x="315" y="144.71" as="targetPoint" />
            <Array as="points">
              <mxPoint x="230" y="144.71" />
            </Array>
          </mxGeometry>
        </mxCell>
        <mxCell id="4-TMQI-ZEwgitc-bTW-Y-9" value="getBooks()" style="text;html=1;align=center;verticalAlign=middle;resizable=0;points=[];autosize=1;strokeColor=none;fillColor=none;" parent="1" vertex="1">
          <mxGeometry x="180" y="110" width="80" height="30" as="geometry" />
        </mxCell>
        <mxCell id="4-TMQI-ZEwgitc-bTW-Y-10" value="" style="endArrow=classic;html=1;rounded=0;" parent="1" edge="1">
          <mxGeometry width="50" height="50" relative="1" as="geometry">
            <mxPoint x="129.9999999999999" y="180" as="sourcePoint" />
            <mxPoint x="315" y="180" as="targetPoint" />
            <Array as="points">
              <mxPoint x="200" y="180" />
              <mxPoint x="280" y="180" />
            </Array>
          </mxGeometry>
        </mxCell>
        <mxCell id="4-TMQI-ZEwgitc-bTW-Y-11" value="getBooksById()" style="text;html=1;align=center;verticalAlign=middle;resizable=0;points=[];autosize=1;strokeColor=none;fillColor=none;" parent="1" vertex="1">
          <mxGeometry x="165" y="150" width="110" height="30" as="geometry" />
        </mxCell>
        <mxCell id="4-TMQI-ZEwgitc-bTW-Y-12" value="" style="endArrow=classic;html=1;rounded=0;" parent="1" edge="1">
          <mxGeometry width="50" height="50" relative="1" as="geometry">
            <mxPoint x="130" y="210" as="sourcePoint" />
            <mxPoint x="315" y="210" as="targetPoint" />
            <Array as="points">
              <mxPoint x="250" y="210" />
            </Array>
          </mxGeometry>
        </mxCell>
        <mxCell id="4-TMQI-ZEwgitc-bTW-Y-13" value="getBooksByAuthor()" style="text;html=1;align=center;verticalAlign=middle;resizable=0;points=[];autosize=1;strokeColor=none;fillColor=none;" parent="1" vertex="1">
          <mxGeometry x="155" y="180" width="130" height="30" as="geometry" />
        </mxCell>
        <mxCell id="aM9ryv3xv72pqoxQDRHE-2" value="" style="html=1;points=[];perimeter=orthogonalPerimeter;outlineConnect=0;targetShapes=umlLifeline;portConstraint=eastwest;newEdgeStyle={&quot;edgeStyle&quot;:&quot;elbowEdgeStyle&quot;,&quot;elbow&quot;:&quot;vertical&quot;,&quot;curved&quot;:0,&quot;rounded&quot;:0};" parent="1" vertex="1">
          <mxGeometry x="120" y="130" width="10" height="530" as="geometry" />
        </mxCell>
        <mxCell id="4-TMQI-ZEwgitc-bTW-Y-14" value="" style="endArrow=classic;html=1;rounded=0;" parent="1" edge="1">
          <mxGeometry width="50" height="50" relative="1" as="geometry">
            <mxPoint x="130" y="240" as="sourcePoint" />
            <mxPoint x="315" y="240" as="targetPoint" />
            <Array as="points">
              <mxPoint x="220" y="240" />
            </Array>
          </mxGeometry>
        </mxCell>
        <mxCell id="4-TMQI-ZEwgitc-bTW-Y-15" value="getBooksByTitle()" style="text;html=1;align=center;verticalAlign=middle;resizable=0;points=[];autosize=1;strokeColor=none;fillColor=none;" parent="1" vertex="1">
          <mxGeometry x="160" y="210" width="120" height="30" as="geometry" />
        </mxCell>
        <mxCell id="4-TMQI-ZEwgitc-bTW-Y-18" value="" style="html=1;points=[];perimeter=orthogonalPerimeter;outlineConnect=0;targetShapes=umlLifeline;portConstraint=eastwest;newEdgeStyle={&quot;edgeStyle&quot;:&quot;elbowEdgeStyle&quot;,&quot;elbow&quot;:&quot;vertical&quot;,&quot;curved&quot;:0,&quot;rounded&quot;:0};" parent="1" vertex="1">
          <mxGeometry x="315" y="340" width="10" height="70" as="geometry" />
        </mxCell>
        <mxCell id="4-TMQI-ZEwgitc-bTW-Y-19" value="" style="html=1;points=[];perimeter=orthogonalPerimeter;outlineConnect=0;targetShapes=umlLifeline;portConstraint=eastwest;newEdgeStyle={&quot;edgeStyle&quot;:&quot;elbowEdgeStyle&quot;,&quot;elbow&quot;:&quot;vertical&quot;,&quot;curved&quot;:0,&quot;rounded&quot;:0};" parent="1" vertex="1">
          <mxGeometry x="315" y="420" width="10" height="70" as="geometry" />
        </mxCell>
        <mxCell id="4-TMQI-ZEwgitc-bTW-Y-20" value="" style="html=1;points=[];perimeter=orthogonalPerimeter;outlineConnect=0;targetShapes=umlLifeline;portConstraint=eastwest;newEdgeStyle={&quot;edgeStyle&quot;:&quot;elbowEdgeStyle&quot;,&quot;elbow&quot;:&quot;vertical&quot;,&quot;curved&quot;:0,&quot;rounded&quot;:0};" parent="1" vertex="1">
          <mxGeometry x="315" y="500" width="10" height="70" as="geometry" />
        </mxCell>
        <mxCell id="4-TMQI-ZEwgitc-bTW-Y-21" value="" style="endArrow=classic;html=1;rounded=0;" parent="1" source="aM9ryv3xv72pqoxQDRHE-2" target="4-TMQI-ZEwgitc-bTW-Y-18" edge="1">
          <mxGeometry width="50" height="50" relative="1" as="geometry">
            <mxPoint x="210" y="410" as="sourcePoint" />
            <mxPoint x="260" y="360" as="targetPoint" />
            <Array as="points">
              <mxPoint x="240" y="360" />
            </Array>
          </mxGeometry>
        </mxCell>
        <mxCell id="4-TMQI-ZEwgitc-bTW-Y-22" value="saveBook()" style="text;html=1;align=center;verticalAlign=middle;resizable=0;points=[];autosize=1;strokeColor=none;fillColor=none;" parent="1" vertex="1">
          <mxGeometry x="180" y="330" width="80" height="30" as="geometry" />
        </mxCell>
        <mxCell id="4-TMQI-ZEwgitc-bTW-Y-23" value="return" style="html=1;verticalAlign=bottom;endArrow=open;dashed=1;endSize=8;edgeStyle=elbowEdgeStyle;elbow=vertical;curved=0;rounded=0;" parent="1" edge="1">
          <mxGeometry x="0.027" relative="1" as="geometry">
            <mxPoint x="130" y="390" as="targetPoint" />
            <Array as="points">
              <mxPoint x="190" y="390" />
            </Array>
            <mxPoint x="315" y="390" as="sourcePoint" />
            <mxPoint as="offset" />
          </mxGeometry>
        </mxCell>
        <mxCell id="4-TMQI-ZEwgitc-bTW-Y-24" value="return" style="html=1;verticalAlign=bottom;endArrow=open;dashed=1;endSize=8;edgeStyle=elbowEdgeStyle;elbow=vertical;curved=0;rounded=0;" parent="1" edge="1">
          <mxGeometry x="0.027" relative="1" as="geometry">
            <mxPoint x="130" y="470" as="targetPoint" />
            <Array as="points">
              <mxPoint x="190" y="470" />
            </Array>
            <mxPoint x="315" y="470" as="sourcePoint" />
            <mxPoint as="offset" />
          </mxGeometry>
        </mxCell>
        <mxCell id="4-TMQI-ZEwgitc-bTW-Y-25" value="return" style="html=1;verticalAlign=bottom;endArrow=open;dashed=1;endSize=8;edgeStyle=elbowEdgeStyle;elbow=vertical;curved=0;rounded=0;" parent="1" edge="1">
          <mxGeometry x="0.027" relative="1" as="geometry">
            <mxPoint x="130" y="549" as="targetPoint" />
            <Array as="points">
              <mxPoint x="190" y="549" />
            </Array>
            <mxPoint x="315" y="549" as="sourcePoint" />
            <mxPoint as="offset" />
          </mxGeometry>
        </mxCell>
        <mxCell id="4-TMQI-ZEwgitc-bTW-Y-26" value="" style="endArrow=classic;html=1;rounded=0;" parent="1" source="aM9ryv3xv72pqoxQDRHE-2" target="4-TMQI-ZEwgitc-bTW-Y-19" edge="1">
          <mxGeometry width="50" height="50" relative="1" as="geometry">
            <mxPoint x="140" y="370" as="sourcePoint" />
            <mxPoint x="325" y="370" as="targetPoint" />
            <Array as="points">
              <mxPoint x="240" y="440" />
            </Array>
          </mxGeometry>
        </mxCell>
        <mxCell id="4-TMQI-ZEwgitc-bTW-Y-27" value="" style="endArrow=classic;html=1;rounded=0;" parent="1" source="aM9ryv3xv72pqoxQDRHE-2" target="4-TMQI-ZEwgitc-bTW-Y-20" edge="1">
          <mxGeometry width="50" height="50" relative="1" as="geometry">
            <mxPoint x="140" y="520" as="sourcePoint" />
            <mxPoint x="300" y="520" as="targetPoint" />
            <Array as="points">
              <mxPoint x="182.5" y="520" />
              <mxPoint x="242.5" y="520" />
            </Array>
          </mxGeometry>
        </mxCell>
        <mxCell id="4-TMQI-ZEwgitc-bTW-Y-29" value="editBook()" style="text;html=1;align=center;verticalAlign=middle;resizable=0;points=[];autosize=1;strokeColor=none;fillColor=none;" parent="1" vertex="1">
          <mxGeometry x="180" y="410" width="80" height="30" as="geometry" />
        </mxCell>
        <mxCell id="4-TMQI-ZEwgitc-bTW-Y-30" value="deleteBook()" style="text;html=1;align=center;verticalAlign=middle;resizable=0;points=[];autosize=1;strokeColor=none;fillColor=none;" parent="1" vertex="1">
          <mxGeometry x="175" y="490" width="90" height="30" as="geometry" />
        </mxCell>
        <mxCell id="4-TMQI-ZEwgitc-bTW-Y-31" value="LivrariaMauaRepository" style="shape=umlLifeline;perimeter=lifelinePerimeter;whiteSpace=wrap;html=1;container=0;dropTarget=0;collapsible=0;recursiveResize=0;outlineConnect=0;portConstraint=eastwest;newEdgeStyle={&quot;edgeStyle&quot;:&quot;elbowEdgeStyle&quot;,&quot;elbow&quot;:&quot;vertical&quot;,&quot;curved&quot;:0,&quot;rounded&quot;:0};" parent="1" vertex="1">
          <mxGeometry x="410" y="40" width="140" height="530" as="geometry" />
        </mxCell>
        <mxCell id="4-TMQI-ZEwgitc-bTW-Y-32" value="" style="html=1;points=[];perimeter=orthogonalPerimeter;outlineConnect=0;targetShapes=umlLifeline;portConstraint=eastwest;newEdgeStyle={&quot;edgeStyle&quot;:&quot;elbowEdgeStyle&quot;,&quot;elbow&quot;:&quot;vertical&quot;,&quot;curved&quot;:0,&quot;rounded&quot;:0};" parent="4-TMQI-ZEwgitc-bTW-Y-31" vertex="1">
          <mxGeometry x="65" y="80" width="10" height="450" as="geometry" />
        </mxCell>
        <mxCell id="4-TMQI-ZEwgitc-bTW-Y-35" value="" style="endArrow=classic;html=1;rounded=0;" parent="1" edge="1">
          <mxGeometry width="50" height="50" relative="1" as="geometry">
            <mxPoint x="325" y="174.5" as="sourcePoint" />
            <mxPoint x="475" y="174.5" as="targetPoint" />
            <Array as="points">
              <mxPoint x="370" y="174.5" />
              <mxPoint x="440" y="174.5" />
            </Array>
          </mxGeometry>
        </mxCell>
        <mxCell id="4-TMQI-ZEwgitc-bTW-Y-36" value="" style="endArrow=classic;html=1;rounded=0;" parent="1" edge="1">
          <mxGeometry width="50" height="50" relative="1" as="geometry">
            <mxPoint x="325" y="350" as="sourcePoint" />
            <mxPoint x="475" y="350" as="targetPoint" />
            <Array as="points">
              <mxPoint x="410" y="350" />
            </Array>
          </mxGeometry>
        </mxCell>
        <mxCell id="4-TMQI-ZEwgitc-bTW-Y-37" value="" style="endArrow=classic;html=1;rounded=0;" parent="1" edge="1">
          <mxGeometry width="50" height="50" relative="1" as="geometry">
            <mxPoint x="325" y="430" as="sourcePoint" />
            <mxPoint x="475" y="430" as="targetPoint" />
            <Array as="points">
              <mxPoint x="410" y="430" />
            </Array>
          </mxGeometry>
        </mxCell>
        <mxCell id="4-TMQI-ZEwgitc-bTW-Y-38" value="" style="endArrow=classic;html=1;rounded=0;" parent="1" edge="1">
          <mxGeometry width="50" height="50" relative="1" as="geometry">
            <mxPoint x="325" y="510.0000000000001" as="sourcePoint" />
            <mxPoint x="475" y="510.0000000000001" as="targetPoint" />
            <Array as="points">
              <mxPoint x="410" y="510.0000000000001" />
            </Array>
          </mxGeometry>
        </mxCell>
        <mxCell id="4-TMQI-ZEwgitc-bTW-Y-43" value="LivrariaMauaDataSourceConfig" style="shape=umlLifeline;perimeter=lifelinePerimeter;whiteSpace=wrap;html=1;container=0;dropTarget=0;collapsible=0;recursiveResize=0;outlineConnect=0;portConstraint=eastwest;newEdgeStyle={&quot;edgeStyle&quot;:&quot;elbowEdgeStyle&quot;,&quot;elbow&quot;:&quot;vertical&quot;,&quot;curved&quot;:0,&quot;rounded&quot;:0};" parent="1" vertex="1">
          <mxGeometry x="580" y="40" width="180" height="210" as="geometry" />
        </mxCell>
        <mxCell id="4-TMQI-ZEwgitc-bTW-Y-44" value="" style="html=1;points=[];perimeter=orthogonalPerimeter;outlineConnect=0;targetShapes=umlLifeline;portConstraint=eastwest;newEdgeStyle={&quot;edgeStyle&quot;:&quot;elbowEdgeStyle&quot;,&quot;elbow&quot;:&quot;vertical&quot;,&quot;curved&quot;:0,&quot;rounded&quot;:0};" parent="4-TMQI-ZEwgitc-bTW-Y-43" vertex="1">
          <mxGeometry x="85" y="80" width="10" height="130" as="geometry" />
        </mxCell>
        <mxCell id="4-TMQI-ZEwgitc-bTW-Y-45" value="" style="endArrow=classic;html=1;rounded=0;" parent="1" target="4-TMQI-ZEwgitc-bTW-Y-44" edge="1">
          <mxGeometry width="50" height="50" relative="1" as="geometry">
            <mxPoint x="485" y="179.66" as="sourcePoint" />
            <mxPoint x="660" y="179.66" as="targetPoint" />
          </mxGeometry>
        </mxCell>
        <mxCell id="4-TMQI-ZEwgitc-bTW-Y-46" value="return" style="html=1;verticalAlign=bottom;endArrow=open;dashed=1;endSize=8;edgeStyle=elbowEdgeStyle;elbow=vertical;curved=0;rounded=0;" parent="1" source="4-TMQI-ZEwgitc-bTW-Y-44" edge="1">
          <mxGeometry x="0.027" relative="1" as="geometry">
            <mxPoint x="485" y="220" as="targetPoint" />
            <Array as="points">
              <mxPoint x="630" y="220" />
            </Array>
            <mxPoint x="640" y="220" as="sourcePoint" />
            <mxPoint as="offset" />
          </mxGeometry>
        </mxCell>
        <mxCell id="4-TMQI-ZEwgitc-bTW-Y-48" value="AwsSecret" style="shape=umlLifeline;perimeter=lifelinePerimeter;whiteSpace=wrap;html=1;container=0;dropTarget=0;collapsible=0;recursiveResize=0;outlineConnect=0;portConstraint=eastwest;newEdgeStyle={&quot;edgeStyle&quot;:&quot;elbowEdgeStyle&quot;,&quot;elbow&quot;:&quot;vertical&quot;,&quot;curved&quot;:0,&quot;rounded&quot;:0};" parent="1" vertex="1">
          <mxGeometry x="780" y="40" width="180" height="220" as="geometry" />
        </mxCell>
        <mxCell id="4-TMQI-ZEwgitc-bTW-Y-49" value="" style="html=1;points=[];perimeter=orthogonalPerimeter;outlineConnect=0;targetShapes=umlLifeline;portConstraint=eastwest;newEdgeStyle={&quot;edgeStyle&quot;:&quot;elbowEdgeStyle&quot;,&quot;elbow&quot;:&quot;vertical&quot;,&quot;curved&quot;:0,&quot;rounded&quot;:0};" parent="4-TMQI-ZEwgitc-bTW-Y-48" vertex="1">
          <mxGeometry x="85" y="80" width="10" height="140" as="geometry" />
        </mxCell>
        <mxCell id="4-TMQI-ZEwgitc-bTW-Y-50" value="" style="endArrow=classic;html=1;rounded=0;" parent="1" source="4-TMQI-ZEwgitc-bTW-Y-44" target="4-TMQI-ZEwgitc-bTW-Y-49" edge="1">
          <mxGeometry width="50" height="50" relative="1" as="geometry">
            <mxPoint x="680" y="160" as="sourcePoint" />
            <mxPoint x="860" y="160.34" as="targetPoint" />
          </mxGeometry>
        </mxCell>
        <mxCell id="4-TMQI-ZEwgitc-bTW-Y-51" value="getSecret()" style="text;html=1;align=center;verticalAlign=middle;resizable=0;points=[];autosize=1;strokeColor=none;fillColor=none;" parent="1" vertex="1">
          <mxGeometry x="730" y="150" width="80" height="30" as="geometry" />
        </mxCell>
        <mxCell id="4-TMQI-ZEwgitc-bTW-Y-52" value="return" style="html=1;verticalAlign=bottom;endArrow=open;dashed=1;endSize=8;edgeStyle=elbowEdgeStyle;elbow=vertical;curved=0;rounded=0;" parent="1" source="4-TMQI-ZEwgitc-bTW-Y-49" target="4-TMQI-ZEwgitc-bTW-Y-44" edge="1">
          <mxGeometry x="0.027" relative="1" as="geometry">
            <mxPoint x="680" y="214.66" as="targetPoint" />
            <Array as="points">
              <mxPoint x="825" y="214.66" />
            </Array>
            <mxPoint x="860" y="214.66" as="sourcePoint" />
            <mxPoint as="offset" />
          </mxGeometry>
        </mxCell>
        <mxCell id="4-TMQI-ZEwgitc-bTW-Y-54" value="validateReturn" style="text;html=1;align=center;verticalAlign=middle;resizable=0;points=[];autosize=1;strokeColor=none;fillColor=none;" parent="1" vertex="1">
          <mxGeometry x="350" y="290" width="100" height="30" as="geometry" />
        </mxCell>
        <mxCell id="4-TMQI-ZEwgitc-bTW-Y-55" value="return" style="html=1;verticalAlign=bottom;endArrow=open;dashed=1;endSize=8;edgeStyle=elbowEdgeStyle;elbow=vertical;curved=0;rounded=0;" parent="1" source="4-TMQI-ZEwgitc-bTW-Y-32" edge="1">
          <mxGeometry x="0.027" relative="1" as="geometry">
            <mxPoint x="325" y="239.31" as="targetPoint" />
            <Array as="points" />
            <mxPoint x="450" y="239" as="sourcePoint" />
            <mxPoint as="offset" />
          </mxGeometry>
        </mxCell>
        <mxCell id="4-TMQI-ZEwgitc-bTW-Y-56" value="return" style="html=1;verticalAlign=bottom;endArrow=open;dashed=1;endSize=8;edgeStyle=elbowEdgeStyle;elbow=vertical;curved=0;rounded=0;" parent="1" edge="1">
          <mxGeometry x="0.027" relative="1" as="geometry">
            <mxPoint x="325" y="369.97" as="targetPoint" />
            <Array as="points" />
            <mxPoint x="475" y="369.65999999999997" as="sourcePoint" />
            <mxPoint as="offset" />
          </mxGeometry>
        </mxCell>
        <mxCell id="4-TMQI-ZEwgitc-bTW-Y-59" value="" style="endArrow=classic;html=1;rounded=0;" parent="1" target="4-TMQI-ZEwgitc-bTW-Y-18" edge="1">
          <mxGeometry width="50" height="50" relative="1" as="geometry">
            <mxPoint x="325" y="380" as="sourcePoint" />
            <mxPoint x="324.9999999999999" y="410" as="targetPoint" />
            <Array as="points">
              <mxPoint x="360" y="380" />
              <mxPoint x="360" y="390" />
              <mxPoint x="360" y="400" />
            </Array>
          </mxGeometry>
        </mxCell>
        <mxCell id="4-TMQI-ZEwgitc-bTW-Y-60" value="return" style="html=1;verticalAlign=bottom;endArrow=open;dashed=1;endSize=8;edgeStyle=elbowEdgeStyle;elbow=vertical;curved=0;rounded=0;" parent="1" edge="1">
          <mxGeometry x="0.027" relative="1" as="geometry">
            <mxPoint x="325" y="449.97" as="targetPoint" />
            <Array as="points" />
            <mxPoint x="475" y="449.65999999999997" as="sourcePoint" />
            <mxPoint as="offset" />
          </mxGeometry>
        </mxCell>
        <mxCell id="4-TMQI-ZEwgitc-bTW-Y-61" value="" style="endArrow=classic;html=1;rounded=0;" parent="1" edge="1">
          <mxGeometry width="50" height="50" relative="1" as="geometry">
            <mxPoint x="325" y="460" as="sourcePoint" />
            <mxPoint x="325" y="480" as="targetPoint" />
            <Array as="points">
              <mxPoint x="360" y="460" />
              <mxPoint x="360" y="470" />
              <mxPoint x="360" y="480" />
            </Array>
          </mxGeometry>
        </mxCell>
        <mxCell id="4-TMQI-ZEwgitc-bTW-Y-62" value="return" style="html=1;verticalAlign=bottom;endArrow=open;dashed=1;endSize=8;edgeStyle=elbowEdgeStyle;elbow=vertical;curved=0;rounded=0;" parent="1" edge="1">
          <mxGeometry x="0.027" relative="1" as="geometry">
            <mxPoint x="325" y="529.97" as="targetPoint" />
            <Array as="points" />
            <mxPoint x="475" y="529.66" as="sourcePoint" />
            <mxPoint as="offset" />
          </mxGeometry>
        </mxCell>
        <mxCell id="4-TMQI-ZEwgitc-bTW-Y-63" value="" style="endArrow=classic;html=1;rounded=0;" parent="1" edge="1">
          <mxGeometry width="50" height="50" relative="1" as="geometry">
            <mxPoint x="325" y="540" as="sourcePoint" />
            <mxPoint x="325" y="560" as="targetPoint" />
            <Array as="points">
              <mxPoint x="360" y="540" />
              <mxPoint x="360" y="550" />
              <mxPoint x="360" y="560" />
            </Array>
          </mxGeometry>
        </mxCell>
        <mxCell id="4-TMQI-ZEwgitc-bTW-Y-65" value="" style="endArrow=classic;html=1;rounded=0;" parent="1" edge="1">
          <mxGeometry width="50" height="50" relative="1" as="geometry">
            <mxPoint x="325" y="290" as="sourcePoint" />
            <mxPoint x="325" y="310" as="targetPoint" />
            <Array as="points">
              <mxPoint x="360" y="290" />
              <mxPoint x="360" y="300" />
              <mxPoint x="360" y="310" />
            </Array>
          </mxGeometry>
        </mxCell>
        <mxCell id="4-TMQI-ZEwgitc-bTW-Y-67" value="validateReturn" style="text;html=1;align=center;verticalAlign=middle;resizable=0;points=[];autosize=1;strokeColor=none;fillColor=none;" parent="1" vertex="1">
          <mxGeometry x="350" y="380" width="100" height="30" as="geometry" />
        </mxCell>
        <mxCell id="4-TMQI-ZEwgitc-bTW-Y-68" value="validateReturn" style="text;html=1;align=center;verticalAlign=middle;resizable=0;points=[];autosize=1;strokeColor=none;fillColor=none;" parent="1" vertex="1">
          <mxGeometry x="350" y="460" width="100" height="30" as="geometry" />
        </mxCell>
        <mxCell id="4-TMQI-ZEwgitc-bTW-Y-69" value="validateReturn" style="text;html=1;align=center;verticalAlign=middle;resizable=0;points=[];autosize=1;strokeColor=none;fillColor=none;" parent="1" vertex="1">
          <mxGeometry x="350" y="540" width="100" height="30" as="geometry" />
        </mxCell>
        <mxCell id="4-TMQI-ZEwgitc-bTW-Y-77" value="getData()" style="text;html=1;align=center;verticalAlign=middle;resizable=0;points=[];autosize=1;strokeColor=none;fillColor=none;" parent="1" vertex="1">
          <mxGeometry x="365" y="150" width="70" height="30" as="geometry" />
        </mxCell>
        <mxCell id="4-TMQI-ZEwgitc-bTW-Y-132" value="saveData()" style="text;html=1;align=center;verticalAlign=middle;resizable=0;points=[];autosize=1;strokeColor=none;fillColor=none;" parent="1" vertex="1">
          <mxGeometry x="360" y="320" width="80" height="30" as="geometry" />
        </mxCell>
        <mxCell id="4-TMQI-ZEwgitc-bTW-Y-133" value="updateData()" style="text;html=1;align=center;verticalAlign=middle;resizable=0;points=[];autosize=1;strokeColor=none;fillColor=none;" parent="1" vertex="1">
          <mxGeometry x="355" y="410" width="90" height="30" as="geometry" />
        </mxCell>
        <mxCell id="4-TMQI-ZEwgitc-bTW-Y-134" value="deleteData()" style="text;html=1;align=center;verticalAlign=middle;resizable=0;points=[];autosize=1;strokeColor=none;fillColor=none;" parent="1" vertex="1">
          <mxGeometry x="350" y="490" width="90" height="30" as="geometry" />
        </mxCell>
        <mxCell id="4-TMQI-ZEwgitc-bTW-Y-135" value="openConnection()" style="text;html=1;align=center;verticalAlign=middle;resizable=0;points=[];autosize=1;strokeColor=none;fillColor=none;" parent="1" vertex="1">
          <mxGeometry x="515" y="150" width="120" height="30" as="geometry" />
        </mxCell>
        <mxCell id="4-TMQI-ZEwgitc-bTW-Y-138" value="" style="endArrow=classic;html=1;rounded=0;labelBackgroundColor=none;dashed=1;" parent="1" source="4-TMQI-ZEwgitc-bTW-Y-49" target="4-TMQI-ZEwgitc-bTW-Y-140" edge="1">
          <mxGeometry width="50" height="50" relative="1" as="geometry">
            <mxPoint x="880" y="240" as="sourcePoint" />
            <mxPoint x="990" y="240" as="targetPoint" />
            <Array as="points">
              <mxPoint x="960" y="240" />
            </Array>
          </mxGeometry>
        </mxCell>
        <mxCell id="4-TMQI-ZEwgitc-bTW-Y-139" value="LivrariaMauaHandlerException" style="shape=umlLifeline;perimeter=lifelinePerimeter;whiteSpace=wrap;html=1;container=0;dropTarget=0;collapsible=0;recursiveResize=0;outlineConnect=0;portConstraint=eastwest;newEdgeStyle={&quot;edgeStyle&quot;:&quot;elbowEdgeStyle&quot;,&quot;elbow&quot;:&quot;vertical&quot;,&quot;curved&quot;:0,&quot;rounded&quot;:0};" parent="1" vertex="1">
          <mxGeometry x="1000" y="40" width="180" height="570" as="geometry" />
        </mxCell>
        <mxCell id="4-TMQI-ZEwgitc-bTW-Y-140" value="" style="html=1;points=[];perimeter=orthogonalPerimeter;outlineConnect=0;targetShapes=umlLifeline;portConstraint=eastwest;newEdgeStyle={&quot;edgeStyle&quot;:&quot;elbowEdgeStyle&quot;,&quot;elbow&quot;:&quot;vertical&quot;,&quot;curved&quot;:0,&quot;rounded&quot;:0};" parent="4-TMQI-ZEwgitc-bTW-Y-139" vertex="1">
          <mxGeometry x="85" y="80" width="10" height="490" as="geometry" />
        </mxCell>
        <mxCell id="4-TMQI-ZEwgitc-bTW-Y-141" value="throw Exception()" style="text;html=1;align=center;verticalAlign=middle;resizable=0;points=[];autosize=1;strokeColor=none;fillColor=none;" parent="1" vertex="1">
          <mxGeometry x="920" y="210" width="120" height="30" as="geometry" />
        </mxCell>
        <mxCell id="4-TMQI-ZEwgitc-bTW-Y-142" value="" style="endArrow=classic;html=1;rounded=0;labelBackgroundColor=none;dashed=1;" parent="1" source="aM9ryv3xv72pqoxQDRHE-5" target="4-TMQI-ZEwgitc-bTW-Y-140" edge="1">
          <mxGeometry width="50" height="50" relative="1" as="geometry">
            <mxPoint x="320" y="630" as="sourcePoint" />
            <mxPoint x="1070" y="400" as="targetPoint" />
            <Array as="points">
              <mxPoint x="320" y="600" />
              <mxPoint x="400" y="600" />
              <mxPoint x="660" y="600" />
              <mxPoint x="720" y="600" />
              <mxPoint x="720" y="540" />
              <mxPoint x="720" y="510" />
              <mxPoint x="720" y="500" />
              <mxPoint x="720" y="400" />
            </Array>
          </mxGeometry>
        </mxCell>
        <mxCell id="4-TMQI-ZEwgitc-bTW-Y-143" value="throw Exception()" style="text;html=1;align=center;verticalAlign=middle;resizable=0;points=[];autosize=1;strokeColor=none;fillColor=none;" parent="1" vertex="1">
          <mxGeometry x="850" y="370" width="120" height="30" as="geometry" />
        </mxCell>
        <mxCell id="4-TMQI-ZEwgitc-bTW-Y-145" value="return" style="html=1;verticalAlign=bottom;endArrow=open;dashed=1;endSize=8;edgeStyle=elbowEdgeStyle;elbow=vertical;curved=0;rounded=0;" parent="1" source="4-TMQI-ZEwgitc-bTW-Y-140" edge="1">
          <mxGeometry x="0.027" relative="1" as="geometry">
            <mxPoint x="130" y="650" as="targetPoint" />
            <Array as="points">
              <mxPoint x="1050" y="650" />
            </Array>
            <mxPoint x="1090" y="620" as="sourcePoint" />
            <mxPoint as="offset" />
          </mxGeometry>
        </mxCell>
        <mxCell id="BYQyHAAq2-MABb-32UrH-2" value="getBooksByGender&lt;span style=&quot;background-color: initial;&quot;&gt;()&lt;/span&gt;" style="text;html=1;align=center;verticalAlign=middle;resizable=0;points=[];autosize=1;strokeColor=none;fillColor=none;" vertex="1" parent="1">
          <mxGeometry x="150" y="240" width="140" height="30" as="geometry" />
        </mxCell>
        <mxCell id="BYQyHAAq2-MABb-32UrH-3" value="" style="endArrow=classic;html=1;rounded=0;" edge="1" parent="1">
          <mxGeometry width="50" height="50" relative="1" as="geometry">
            <mxPoint x="130" y="270" as="sourcePoint" />
            <mxPoint x="315" y="270" as="targetPoint" />
            <Array as="points">
              <mxPoint x="220" y="270" />
            </Array>
          </mxGeometry>
        </mxCell>
      </root>
    </mxGraphModel>
  </diagram>
</mxfile>
